<?xml version="1.0" encoding="UTF-8"?>
<svg viewBox="0 0 360 220" xmlns="http://www.w3.org/2000/svg">
  <defs>
    <style>
      .tooth-part {
        fill: #ffffff;
        stroke: #4b5563;
        stroke-width: 0.4;
        cursor: pointer;
        transition: fill 0.15s;
      }
      .tooth-part:hover {
        fill: #f3f4f6;
      }
      .tooth-part.status-healthy {
        fill: #ffffff;
      }
      .tooth-part.status-cavity-completed {
        fill: #10b981;
      }
      .tooth-part.status-cavity-planned {
        fill: #ef4444;
      }
      .tooth-part.status-observation {
        fill: #fbbf24;
      }
      .tooth-part.status-crown {
        fill: #3b82f6;
      }
      .tooth-part.status-scaling-completed {
        fill: #10b981;
      }
      .tooth-part.status-cleaning {
        fill: #8b5cf6;
      }
      .tooth-label {
        font-size: 6px;
        font-family: ui-sans-serif, system-ui, sans-serif;
        text-anchor: middle;
        fill: #9ca3af;
        pointer-events: none;
      }
      .quadrant-label {
        font-weight: 600;
        font-size: 8px;
        fill: #6b7280;
      }
      .arch-guide {
        fill: none;
        stroke: #f3f4f6;
        stroke-width: 0.5;
      }
    </style>
  </defs>

  <!-- ガイド線（中央縦・横） -->
  <line x1="180" y1="10" x2="180" y2="210" stroke="#f0f0f0" stroke-width="1" />
  <line x1="10" y1="110" x2="350" y2="110" stroke="#f0f0f0" stroke-width="1" />

  <!-- 上顎・下顎のアーチガイド（楕円） -->
  <ellipse cx="180" cy="105" rx="145" ry="85" class="arch-guide" />
  <ellipse cx="180" cy="115" rx="145" ry="85" class="arch-guide" />

  <!-- 象限ラベル -->
  <text x="10" y="15" class="quadrant-label">右上 (1x)</text>
  <text x="350" y="15" class="quadrant-label" text-anchor="end">左上 (2x)</text>
  <text x="10" y="210" class="quadrant-label">右下 (4x)</text>
  <text x="350" y="210" class="quadrant-label" text-anchor="end">左下 (3x)</text>

  <!-- 歯のレイヤー：32本の永久歯 -->
  <g id="teeth-layer">

    <!-- 右上（第1象限）: 18, 17, 16, 15, 14, 13, 12, 11 -->
    <g id="tooth-18" data-number="18" transform="translate(26.5, 50.3) rotate(167.2)">
      <path d="M-7.5,-7.5 L7.5,-7.5 L4.5,-4.5 L-4.5,-4.5 Z" class="tooth-part" data-part="top" data-tooth="18"/>
      <path d="M7.5,-7.5 L7.5,7.5 L4.5,4.5 L4.5,-4.5 Z" class="tooth-part" data-part="right" data-tooth="18"/>
      <path d="M-7.5,7.5 L7.5,7.5 L4.5,4.5 L-4.5,4.5 Z" class="tooth-part" data-part="bottom" data-tooth="18"/>
      <path d="M-7.5,-7.5 L-7.5,7.5 L-4.5,4.5 L-4.5,-4.5 Z" class="tooth-part" data-part="left" data-tooth="18"/>
      <rect x="-4.5" y="-4.5" width="9" height="9" class="tooth-part" data-part="center" data-tooth="18"/>
      <g transform="rotate(-167.2)"><text x="0" y="-15" class="tooth-label">18</text></g>
    </g>

    <g id="tooth-17" data-number="17" transform="translate(38.8, 61.5) rotate(153.4)">
      <path d="M-7.5,-7.5 L7.5,-7.5 L4.5,-4.5 L-4.5,-4.5 Z" class="tooth-part" data-part="top" data-tooth="17"/>
      <path d="M7.5,-7.5 L7.5,7.5 L4.5,4.5 L4.5,-4.5 Z" class="tooth-part" data-part="right" data-tooth="17"/>
      <path d="M-7.5,7.5 L7.5,7.5 L4.5,4.5 L-4.5,4.5 Z" class="tooth-part" data-part="bottom" data-tooth="17"/>
      <path d="M-7.5,-7.5 L-7.5,7.5 L-4.5,4.5 L-4.5,-4.5 Z" class="tooth-part" data-part="left" data-tooth="17"/>
      <rect x="-4.5" y="-4.5" width="9" height="9" class="tooth-part" data-part="center" data-tooth="17"/>
      <g transform="rotate(-153.4)"><text x="0" y="-15" class="tooth-label">17</text></g>
    </g>

    <g id="tooth-16" data-number="16" transform="translate(54.6, 75.0) rotate(139.6)">
      <path d="M-7.5,-7.5 L7.5,-7.5 L4.5,-4.5 L-4.5,-4.5 Z" class="tooth-part" data-part="top" data-tooth="16"/>
      <path d="M7.5,-7.5 L7.5,7.5 L4.5,4.5 L4.5,-4.5 Z" class="tooth-part" data-part="right" data-tooth="16"/>
      <path d="M-7.5,7.5 L7.5,7.5 L4.5,4.5 L-4.5,4.5 Z" class="tooth-part" data-part="bottom" data-tooth="16"/>
      <path d="M-7.5,-7.5 L-7.5,7.5 L-4.5,4.5 L-4.5,-4.5 Z" class="tooth-part" data-part="left" data-tooth="16"/>
      <rect x="-4.5" y="-4.5" width="9" height="9" class="tooth-part" data-part="center" data-tooth="16"/>
      <g transform="rotate(-139.6)"><text x="0" y="-15" class="tooth-label">16</text></g>
    </g>

    <g id="tooth-15" data-number="15" transform="translate(73.8, 89.8) rotate(125.8)">
      <path d="M-7.5,-7.5 L7.5,-7.5 L4.5,-4.5 L-4.5,-4.5 Z" class="tooth-part" data-part="top" data-tooth="15"/>
      <path d="M7.5,-7.5 L7.5,7.5 L4.5,4.5 L4.5,-4.5 Z" class="tooth-part" data-part="right" data-tooth="15"/>
      <path d="M-7.5,7.5 L7.5,7.5 L4.5,4.5 L-4.5,4.5 Z" class="tooth-part" data-part="bottom" data-tooth="15"/>
      <path d="M-7.5,-7.5 L-7.5,7.5 L-4.5,4.5 L-4.5,-4.5 Z" class="tooth-part" data-part="left" data-tooth="15"/>
      <rect x="-4.5" y="-4.5" width="9" height="9" class="tooth-part" data-part="center" data-tooth="15"/>
      <g transform="rotate(-125.8)"><text x="0" y="-15" class="tooth-label">15</text></g>
    </g>

    <g id="tooth-14" data-number="14" transform="translate(95.6, 102.8) rotate(112.0)">
      <path d="M-7.5,-7.5 L7.5,-7.5 L4.5,-4.5 L-4.5,-4.5 Z" class="tooth-part" data-part="top" data-tooth="14"/>
      <path d="M7.5,-7.5 L7.5,7.5 L4.5,4.5 L4.5,-4.5 Z" class="tooth-part" data-part="right" data-tooth="14"/>
      <path d="M-7.5,7.5 L7.5,7.5 L4.5,4.5 L-4.5,4.5 Z" class="tooth-part" data-part="bottom" data-tooth="14"/>
      <path d="M-7.5,-7.5 L-7.5,7.5 L-4.5,4.5 L-4.5,-4.5 Z" class="tooth-part" data-part="left" data-tooth="14"/>
      <rect x="-4.5" y="-4.5" width="9" height="9" class="tooth-part" data-part="center" data-tooth="14"/>
      <g transform="rotate(-112.0)"><text x="0" y="-15" class="tooth-label">14</text></g>
    </g>

    <g id="tooth-13" data-number="13" transform="translate(119.2, 111.8) rotate(98.2)">
      <path d="M-7.5,-7.5 L7.5,-7.5 L4.5,-4.5 L-4.5,-4.5 Z" class="tooth-part" data-part="top" data-tooth="13"/>
      <path d="M7.5,-7.5 L7.5,7.5 L4.5,4.5 L4.5,-4.5 Z" class="tooth-part" data-part="right" data-tooth="13"/>
      <path d="M-7.5,7.5 L7.5,7.5 L4.5,4.5 L-4.5,4.5 Z" class="tooth-part" data-part="bottom" data-tooth="13"/>
      <path d="M-7.5,-7.5 L-7.5,7.5 L-4.5,4.5 L-4.5,-4.5 Z" class="tooth-part" data-part="left" data-tooth="13"/>
      <rect x="-4.5" y="-4.5" width="9" height="9" class="tooth-part" data-part="center" data-tooth="13"/>
      <g transform="rotate(-98.2)"><text x="0" y="-15" class="tooth-label">13</text></g>
    </g>

    <g id="tooth-12" data-number="12" transform="translate(142.8, 115.8) rotate(84.4)">
      <path d="M-7.5,-7.5 L7.5,-7.5 L4.5,-4.5 L-4.5,-4.5 Z" class="tooth-part" data-part="top" data-tooth="12"/>
      <path d="M7.5,-7.5 L7.5,7.5 L4.5,4.5 L4.5,-4.5 Z" class="tooth-part" data-part="right" data-tooth="12"/>
      <path d="M-7.5,7.5 L7.5,7.5 L4.5,4.5 L-4.5,4.5 Z" class="tooth-part" data-part="bottom" data-tooth="12"/>
      <path d="M-7.5,-7.5 L-7.5,7.5 L-4.5,4.5 L-4.5,-4.5 Z" class="tooth-part" data-part="left" data-tooth="12"/>
      <rect x="-4.5" y="-4.5" width="9" height="9" class="tooth-part" data-part="center" data-tooth="12"/>
      <g transform="rotate(-84.4)"><text x="0" y="-15" class="tooth-label">12</text></g>
    </g>

    <g id="tooth-11" data-number="11" transform="translate(165.8, 114.3) rotate(70.6)">
      <path d="M-7.5,-7.5 L7.5,-7.5 L4.5,-4.5 L-4.5,-4.5 Z" class="tooth-part" data-part="top" data-tooth="11"/>
      <path d="M7.5,-7.5 L7.5,7.5 L4.5,4.5 L4.5,-4.5 Z" class="tooth-part" data-part="right" data-tooth="11"/>
      <path d="M-7.5,7.5 L7.5,7.5 L4.5,4.5 L-4.5,4.5 Z" class="tooth-part" data-part="bottom" data-tooth="11"/>
      <path d="M-7.5,-7.5 L-7.5,7.5 L-4.5,4.5 L-4.5,-4.5 Z" class="tooth-part" data-part="left" data-tooth="11"/>
      <rect x="-4.5" y="-4.5" width="9" height="9" class="tooth-part" data-part="center" data-tooth="11"/>
      <g transform="rotate(-70.6)"><text x="0" y="-15" class="tooth-label">11</text></g>
    </g>

    <!-- 左上（第2象限）: 21, 22, 23, 24, 25, 26, 27, 28 -->
    <g id="tooth-21" data-number="21" transform="translate(194.2, 114.3) rotate(109.4)">
      <path d="M-7.5,-7.5 L7.5,-7.5 L4.5,-4.5 L-4.5,-4.5 Z" class="tooth-part" data-part="top" data-tooth="21"/>
      <path d="M7.5,-7.5 L7.5,7.5 L4.5,4.5 L4.5,-4.5 Z" class="tooth-part" data-part="right" data-tooth="21"/>
      <path d="M-7.5,7.5 L7.5,7.5 L4.5,4.5 L-4.5,4.5 Z" class="tooth-part" data-part="bottom" data-tooth="21"/>
      <path d="M-7.5,-7.5 L-7.5,7.5 L-4.5,4.5 L-4.5,-4.5 Z" class="tooth-part" data-part="left" data-tooth="21"/>
      <rect x="-4.5" y="-4.5" width="9" height="9" class="tooth-part" data-part="center" data-tooth="21"/>
      <g transform="rotate(-109.4)"><text x="0" y="-15" class="tooth-label">21</text></g>
    </g>

    <g id="tooth-22" data-number="22" transform="translate(217.2, 115.8) rotate(95.6)">
      <path d="M-7.5,-7.5 L7.5,-7.5 L4.5,-4.5 L-4.5,-4.5 Z" class="tooth-part" data-part="top" data-tooth="22"/>
      <path d="M7.5,-7.5 L7.5,7.5 L4.5,4.5 L4.5,-4.5 Z" class="tooth-part" data-part="right" data-tooth="22"/>
      <path d="M-7.5,7.5 L7.5,7.5 L4.5,4.5 L-4.5,4.5 Z" class="tooth-part" data-part="bottom" data-tooth="22"/>
      <path d="M-7.5,-7.5 L-7.5,7.5 L-4.5,4.5 L-4.5,-4.5 Z" class="tooth-part" data-part="left" data-tooth="22"/>
      <rect x="-4.5" y="-4.5" width="9" height="9" class="tooth-part" data-part="center" data-tooth="22"/>
      <g transform="rotate(-95.6)"><text x="0" y="-15" class="tooth-label">22</text></g>
    </g>

    <g id="tooth-23" data-number="23" transform="translate(240.8, 111.8) rotate(81.8)">
      <path d="M-7.5,-7.5 L7.5,-7.5 L4.5,-4.5 L-4.5,-4.5 Z" class="tooth-part" data-part="top" data-tooth="23"/>
      <path d="M7.5,-7.5 L7.5,7.5 L4.5,4.5 L4.5,-4.5 Z" class="tooth-part" data-part="right" data-tooth="23"/>
      <path d="M-7.5,7.5 L7.5,7.5 L4.5,4.5 L-4.5,4.5 Z" class="tooth-part" data-part="bottom" data-tooth="23"/>
      <path d="M-7.5,-7.5 L-7.5,7.5 L-4.5,4.5 L-4.5,-4.5 Z" class="tooth-part" data-part="left" data-tooth="23"/>
      <rect x="-4.5" y="-4.5" width="9" height="9" class="tooth-part" data-part="center" data-tooth="23"/>
      <g transform="rotate(-81.8)"><text x="0" y="-15" class="tooth-label">23</text></g>
    </g>

    <g id="tooth-24" data-number="24" transform="translate(264.4, 102.8) rotate(68.0)">
      <path d="M-7.5,-7.5 L7.5,-7.5 L4.5,-4.5 L-4.5,-4.5 Z" class="tooth-part" data-part="top" data-tooth="24"/>
      <path d="M7.5,-7.5 L7.5,7.5 L4.5,4.5 L4.5,-4.5 Z" class="tooth-part" data-part="right" data-tooth="24"/>
      <path d="M-7.5,7.5 L7.5,7.5 L4.5,4.5 L-4.5,4.5 Z" class="tooth-part" data-part="bottom" data-tooth="24"/>
      <path d="M-7.5,-7.5 L-7.5,7.5 L-4.5,4.5 L-4.5,-4.5 Z" class="tooth-part" data-part="left" data-tooth="24"/>
      <rect x="-4.5" y="-4.5" width="9" height="9" class="tooth-part" data-part="center" data-tooth="24"/>
      <g transform="rotate(-68.0)"><text x="0" y="-15" class="tooth-label">24</text></g>
    </g>

    <g id="tooth-25" data-number="25" transform="translate(286.2, 89.8) rotate(54.2)">
      <path d="M-7.5,-7.5 L7.5,-7.5 L4.5,-4.5 L-4.5,-4.5 Z" class="tooth-part" data-part="top" data-tooth="25"/>
      <path d="M7.5,-7.5 L7.5,7.5 L4.5,4.5 L4.5,-4.5 Z" class="tooth-part" data-part="right" data-tooth="25"/>
      <path d="M-7.5,7.5 L7.5,7.5 L4.5,4.5 L-4.5,4.5 Z" class="tooth-part" data-part="bottom" data-tooth="25"/>
      <path d="M-7.5,-7.5 L-7.5,7.5 L-4.5,4.5 L-4.5,-4.5 Z" class="tooth-part" data-part="left" data-tooth="25"/>
      <rect x="-4.5" y="-4.5" width="9" height="9" class="tooth-part" data-part="center" data-tooth="25"/>
      <g transform="rotate(-54.2)"><text x="0" y="-15" class="tooth-label">25</text></g>
    </g>

    <g id="tooth-26" data-number="26" transform="translate(305.4, 75.0) rotate(40.4)">
      <path d="M-7.5,-7.5 L7.5,-7.5 L4.5,-4.5 L-4.5,-4.5 Z" class="tooth-part" data-part="top" data-tooth="26"/>
      <path d="M7.5,-7.5 L7.5,7.5 L4.5,4.5 L4.5,-4.5 Z" class="tooth-part" data-part="right" data-tooth="26"/>
      <path d="M-7.5,7.5 L7.5,7.5 L4.5,4.5 L-4.5,4.5 Z" class="tooth-part" data-part="bottom" data-tooth="26"/>
      <path d="M-7.5,-7.5 L-7.5,7.5 L-4.5,4.5 L-4.5,-4.5 Z" class="tooth-part" data-part="left" data-tooth="26"/>
      <rect x="-4.5" y="-4.5" width="9" height="9" class="tooth-part" data-part="center" data-tooth="26"/>
      <g transform="rotate(-40.4)"><text x="0" y="-15" class="tooth-label">26</text></g>
    </g>

    <g id="tooth-27" data-number="27" transform="translate(321.2, 61.5) rotate(26.6)">
      <path d="M-7.5,-7.5 L7.5,-7.5 L4.5,-4.5 L-4.5,-4.5 Z" class="tooth-part" data-part="top" data-tooth="27"/>
      <path d="M7.5,-7.5 L7.5,7.5 L4.5,4.5 L4.5,-4.5 Z" class="tooth-part" data-part="right" data-tooth="27"/>
      <path d="M-7.5,7.5 L7.5,7.5 L4.5,4.5 L-4.5,4.5 Z" class="tooth-part" data-part="bottom" data-tooth="27"/>
      <path d="M-7.5,-7.5 L-7.5,7.5 L-4.5,4.5 L-4.5,-4.5 Z" class="tooth-part" data-part="left" data-tooth="27"/>
      <rect x="-4.5" y="-4.5" width="9" height="9" class="tooth-part" data-part="center" data-tooth="27"/>
      <g transform="rotate(-26.6)"><text x="0" y="-15" class="tooth-label">27</text></g>
    </g>

    <g id="tooth-28" data-number="28" transform="translate(333.5, 50.3) rotate(12.8)">
      <path d="M-7.5,-7.5 L7.5,-7.5 L4.5,-4.5 L-4.5,-4.5 Z" class="tooth-part" data-part="top" data-tooth="28"/>
      <path d="M7.5,-7.5 L7.5,7.5 L4.5,4.5 L4.5,-4.5 Z" class="tooth-part" data-part="right" data-tooth="28"/>
      <path d="M-7.5,7.5 L7.5,7.5 L4.5,4.5 L-4.5,4.5 Z" class="tooth-part" data-part="bottom" data-tooth="28"/>
      <path d="M-7.5,-7.5 L-7.5,7.5 L-4.5,4.5 L-4.5,-4.5 Z" class="tooth-part" data-part="left" data-tooth="28"/>
      <rect x="-4.5" y="-4.5" width="9" height="9" class="tooth-part" data-part="center" data-tooth="28"/>
      <g transform="rotate(-12.8)"><text x="0" y="-15" class="tooth-label">28</text></g>
    </g>

    <!-- 右下（第4象限）: 48, 47, 46, 45, 44, 43, 42, 41 -->
    <g id="tooth-48" data-number="48" transform="translate(26.5, 169.7) rotate(-167.2)">
      <path d="M-7.5,-7.5 L7.5,-7.5 L4.5,-4.5 L-4.5,-4.5 Z" class="tooth-part" data-part="top" data-tooth="48"/>
      <path d="M7.5,-7.5 L7.5,7.5 L4.5,4.5 L4.5,-4.5 Z" class="tooth-part" data-part="right" data-tooth="48"/>
      <path d="M-7.5,7.5 L7.5,7.5 L4.5,4.5 L-4.5,4.5 Z" class="tooth-part" data-part="bottom" data-tooth="48"/>
      <path d="M-7.5,-7.5 L-7.5,7.5 L-4.5,4.5 L-4.5,-4.5 Z" class="tooth-part" data-part="left" data-tooth="48"/>
      <rect x="-4.5" y="-4.5" width="9" height="9" class="tooth-part" data-part="center" data-tooth="48"/>
      <g transform="rotate(167.2)"><text x="0" y="20" class="tooth-label">48</text></g>
    </g>

    <g id="tooth-47" data-number="47" transform="translate(38.8, 158.5) rotate(-153.4)">
      <path d="M-7.5,-7.5 L7.5,-7.5 L4.5,-4.5 L-4.5,-4.5 Z" class="tooth-part" data-part="top" data-tooth="47"/>
      <path d="M7.5,-7.5 L7.5,7.5 L4.5,4.5 L4.5,-4.5 Z" class="tooth-part" data-part="right" data-tooth="47"/>
      <path d="M-7.5,7.5 L7.5,7.5 L4.5,4.5 L-4.5,4.5 Z" class="tooth-part" data-part="bottom" data-tooth="47"/>
      <path d="M-7.5,-7.5 L-7.5,7.5 L-4.5,4.5 L-4.5,-4.5 Z" class="tooth-part" data-part="left" data-tooth="47"/>
      <rect x="-4.5" y="-4.5" width="9" height="9" class="tooth-part" data-part="center" data-tooth="47"/>
      <g transform="rotate(153.4)"><text x="0" y="20" class="tooth-label">47</text></g>
    </g>

    <g id="tooth-46" data-number="46" transform="translate(54.6, 145.0) rotate(-139.6)">
      <path d="M-7.5,-7.5 L7.5,-7.5 L4.5,-4.5 L-4.5,-4.5 Z" class="tooth-part" data-part="top" data-tooth="46"/>
      <path d="M7.5,-7.5 L7.5,7.5 L4.5,4.5 L4.5,-4.5 Z" class="tooth-part" data-part="right" data-tooth="46"/>
      <path d="M-7.5,7.5 L7.5,7.5 L4.5,4.5 L-4.5,4.5 Z" class="tooth-part" data-part="bottom" data-tooth="46"/>
      <path d="M-7.5,-7.5 L-7.5,7.5 L-4.5,4.5 L-4.5,-4.5 Z" class="tooth-part" data-part="left" data-tooth="46"/>
      <rect x="-4.5" y="-4.5" width="9" height="9" class="tooth-part" data-part="center" data-tooth="46"/>
      <g transform="rotate(139.6)"><text x="0" y="20" class="tooth-label">46</text></g>
    </g>

    <g id="tooth-45" data-number="45" transform="translate(73.8, 130.2) rotate(-125.8)">
      <path d="M-7.5,-7.5 L7.5,-7.5 L4.5,-4.5 L-4.5,-4.5 Z" class="tooth-part" data-part="top" data-tooth="45"/>
      <path d="M7.5,-7.5 L7.5,7.5 L4.5,4.5 L4.5,-4.5 Z" class="tooth-part" data-part="right" data-tooth="45"/>
      <path d="M-7.5,7.5 L7.5,7.5 L4.5,4.5 L-4.5,4.5 Z" class="tooth-part" data-part="bottom" data-tooth="45"/>
      <path d="M-7.5,-7.5 L-7.5,7.5 L-4.5,4.5 L-4.5,-4.5 Z" class="tooth-part" data-part="left" data-tooth="45"/>
      <rect x="-4.5" y="-4.5" width="9" height="9" class="tooth-part" data-part="center" data-tooth="45"/>
      <g transform="rotate(125.8)"><text x="0" y="20" class="tooth-label">45</text></g>
    </g>

    <g id="tooth-44" data-number="44" transform="translate(95.6, 117.2) rotate(-112.0)">
      <path d="M-7.5,-7.5 L7.5,-7.5 L4.5,-4.5 L-4.5,-4.5 Z" class="tooth-part" data-part="top" data-tooth="44"/>
      <path d="M7.5,-7.5 L7.5,7.5 L4.5,4.5 L4.5,-4.5 Z" class="tooth-part" data-part="right" data-tooth="44"/>
      <path d="M-7.5,7.5 L7.5,7.5 L4.5,4.5 L-4.5,4.5 Z" class="tooth-part" data-part="bottom" data-tooth="44"/>
      <path d="M-7.5,-7.5 L-7.5,7.5 L-4.5,4.5 L-4.5,-4.5 Z" class="tooth-part" data-part="left" data-tooth="44"/>
      <rect x="-4.5" y="-4.5" width="9" height="9" class="tooth-part" data-part="center" data-tooth="44"/>
      <g transform="rotate(112.0)"><text x="0" y="20" class="tooth-label">44</text></g>
    </g>

    <g id="tooth-43" data-number="43" transform="translate(119.2, 108.2) rotate(-98.2)">
      <path d="M-7.5,-7.5 L7.5,-7.5 L4.5,-4.5 L-4.5,-4.5 Z" class="tooth-part" data-part="top" data-tooth="43"/>
      <path d="M7.5,-7.5 L7.5,7.5 L4.5,4.5 L4.5,-4.5 Z" class="tooth-part" data-part="right" data-tooth="43"/>
      <path d="M-7.5,7.5 L7.5,7.5 L4.5,4.5 L-4.5,4.5 Z" class="tooth-part" data-part="bottom" data-tooth="43"/>
      <path d="M-7.5,-7.5 L-7.5,7.5 L-4.5,4.5 L-4.5,-4.5 Z" class="tooth-part" data-part="left" data-tooth="43"/>
      <rect x="-4.5" y="-4.5" width="9" height="9" class="tooth-part" data-part="center" data-tooth="43"/>
      <g transform="rotate(98.2)"><text x="0" y="20" class="tooth-label">43</text></g>
    </g>

    <g id="tooth-42" data-number="42" transform="translate(142.8, 104.2) rotate(-84.4)">
      <path d="M-7.5,-7.5 L7.5,-7.5 L4.5,-4.5 L-4.5,-4.5 Z" class="tooth-part" data-part="top" data-tooth="42"/>
      <path d="M7.5,-7.5 L7.5,7.5 L4.5,4.5 L4.5,-4.5 Z" class="tooth-part" data-part="right" data-tooth="42"/>
      <path d="M-7.5,7.5 L7.5,7.5 L4.5,4.5 L-4.5,4.5 Z" class="tooth-part" data-part="bottom" data-tooth="42"/>
      <path d="M-7.5,-7.5 L-7.5,7.5 L-4.5,4.5 L-4.5,-4.5 Z" class="tooth-part" data-part="left" data-tooth="42"/>
      <rect x="-4.5" y="-4.5" width="9" height="9" class="tooth-part" data-part="center" data-tooth="42"/>
      <g transform="rotate(84.4)"><text x="0" y="20" class="tooth-label">42</text></g>
    </g>

    <g id="tooth-41" data-number="41" transform="translate(165.8, 105.7) rotate(-70.6)">
      <path d="M-7.5,-7.5 L7.5,-7.5 L4.5,-4.5 L-4.5,-4.5 Z" class="tooth-part" data-part="top" data-tooth="41"/>
      <path d="M7.5,-7.5 L7.5,7.5 L4.5,4.5 L4.5,-4.5 Z" class="tooth-part" data-part="right" data-tooth="41"/>
      <path d="M-7.5,7.5 L7.5,7.5 L4.5,4.5 L-4.5,4.5 Z" class="tooth-part" data-part="bottom" data-tooth="41"/>
      <path d="M-7.5,-7.5 L-7.5,7.5 L-4.5,4.5 L-4.5,-4.5 Z" class="tooth-part" data-part="left" data-tooth="41"/>
      <rect x="-4.5" y="-4.5" width="9" height="9" class="tooth-part" data-part="center" data-tooth="41"/>
      <g transform="rotate(70.6)"><text x="0" y="20" class="tooth-label">41</text></g>
    </g>

    <!-- 左下（第3象限）: 31, 32, 33, 34, 35, 36, 37, 38 -->
    <g id="tooth-31" data-number="31" transform="translate(194.2, 105.7) rotate(-109.4)">
      <path d="M-7.5,-7.5 L7.5,-7.5 L4.5,-4.5 L-4.5,-4.5 Z" class="tooth-part" data-part="top" data-tooth="31"/>
      <path d="M7.5,-7.5 L7.5,7.5 L4.5,4.5 L4.5,-4.5 Z" class="tooth-part" data-part="right" data-tooth="31"/>
      <path d="M-7.5,7.5 L7.5,7.5 L4.5,4.5 L-4.5,4.5 Z" class="tooth-part" data-part="bottom" data-tooth="31"/>
      <path d="M-7.5,-7.5 L-7.5,7.5 L-4.5,4.5 L-4.5,-4.5 Z" class="tooth-part" data-part="left" data-tooth="31"/>
      <rect x="-4.5" y="-4.5" width="9" height="9" class="tooth-part" data-part="center" data-tooth="31"/>
      <g transform="rotate(109.4)"><text x="0" y="20" class="tooth-label">31</text></g>
    </g>

    <g id="tooth-32" data-number="32" transform="translate(217.2, 104.2) rotate(-95.6)">
      <path d="M-7.5,-7.5 L7.5,-7.5 L4.5,-4.5 L-4.5,-4.5 Z" class="tooth-part" data-part="top" data-tooth="32"/>
      <path d="M7.5,-7.5 L7.5,7.5 L4.5,4.5 L4.5,-4.5 Z" class="tooth-part" data-part="right" data-tooth="32"/>
      <path d="M-7.5,7.5 L7.5,7.5 L4.5,4.5 L-4.5,4.5 Z" class="tooth-part" data-part="bottom" data-tooth="32"/>
      <path d="M-7.5,-7.5 L-7.5,7.5 L-4.5,4.5 L-4.5,-4.5 Z" class="tooth-part" data-part="left" data-tooth="32"/>
      <rect x="-4.5" y="-4.5" width="9" height="9" class="tooth-part" data-part="center" data-tooth="32"/>
      <g transform="rotate(95.6)"><text x="0" y="20" class="tooth-label">32</text></g>
    </g>

    <g id="tooth-33" data-number="33" transform="translate(240.8, 108.2) rotate(-81.8)">
      <path d="M-7.5,-7.5 L7.5,-7.5 L4.5,-4.5 L-4.5,-4.5 Z" class="tooth-part" data-part="top" data-tooth="33"/>
      <path d="M7.5,-7.5 L7.5,7.5 L4.5,4.5 L4.5,-4.5 Z" class="tooth-part" data-part="right" data-tooth="33"/>
      <path d="M-7.5,7.5 L7.5,7.5 L4.5,4.5 L-4.5,4.5 Z" class="tooth-part" data-part="bottom" data-tooth="33"/>
      <path d="M-7.5,-7.5 L-7.5,7.5 L-4.5,4.5 L-4.5,-4.5 Z" class="tooth-part" data-part="left" data-tooth="33"/>
      <rect x="-4.5" y="-4.5" width="9" height="9" class="tooth-part" data-part="center" data-tooth="33"/>
      <g transform="rotate(81.8)"><text x="0" y="20" class="tooth-label">33</text></g>
    </g>

    <g id="tooth-34" data-number="34" transform="translate(264.4, 117.2) rotate(-68.0)">
      <path d="M-7.5,-7.5 L7.5,-7.5 L4.5,-4.5 L-4.5,-4.5 Z" class="tooth-part" data-part="top" data-tooth="34"/>
      <path d="M7.5,-7.5 L7.5,7.5 L4.5,4.5 L4.5,-4.5 Z" class="tooth-part" data-part="right" data-tooth="34"/>
      <path d="M-7.5,7.5 L7.5,7.5 L4.5,4.5 L-4.5,4.5 Z" class="tooth-part" data-part="bottom" data-tooth="34"/>
      <path d="M-7.5,-7.5 L-7.5,7.5 L-4.5,4.5 L-4.5,-4.5 Z" class="tooth-part" data-part="left" data-tooth="34"/>
      <rect x="-4.5" y="-4.5" width="9" height="9" class="tooth-part" data-part="center" data-tooth="34"/>
      <g transform="rotate(68.0)"><text x="0" y="20" class="tooth-label">34</text></g>
    </g>

    <g id="tooth-35" data-number="35" transform="translate(286.2, 130.2) rotate(-54.2)">
      <path d="M-7.5,-7.5 L7.5,-7.5 L4.5,-4.5 L-4.5,-4.5 Z" class="tooth-part" data-part="top" data-tooth="35"/>
      <path d="M7.5,-7.5 L7.5,7.5 L4.5,4.5 L4.5,-4.5 Z" class="tooth-part" data-part="right" data-tooth="35"/>
      <path d="M-7.5,7.5 L7.5,7.5 L4.5,4.5 L-4.5,4.5 Z" class="tooth-part" data-part="bottom" data-tooth="35"/>
      <path d="M-7.5,-7.5 L-7.5,7.5 L-4.5,4.5 L-4.5,-4.5 Z" class="tooth-part" data-part="left" data-tooth="35"/>
      <rect x="-4.5" y="-4.5" width="9" height="9" class="tooth-part" data-part="center" data-tooth="35"/>
      <g transform="rotate(54.2)"><text x="0" y="20" class="tooth-label">35</text></g>
    </g>

    <g id="tooth-36" data-number="36" transform="translate(305.4, 145.0) rotate(-40.4)">
      <path d="M-7.5,-7.5 L7.5,-7.5 L4.5,-4.5 L-4.5,-4.5 Z" class="tooth-part" data-part="top" data-tooth="36"/>
      <path d="M7.5,-7.5 L7.5,7.5 L4.5,4.5 L4.5,-4.5 Z" class="tooth-part" data-part="right" data-tooth="36"/>
      <path d="M-7.5,7.5 L7.5,7.5 L4.5,4.5 L-4.5,4.5 Z" class="tooth-part" data-part="bottom" data-tooth="36"/>
      <path d="M-7.5,-7.5 L-7.5,7.5 L-4.5,4.5 L-4.5,-4.5 Z" class="tooth-part" data-part="left" data-tooth="36"/>
      <rect x="-4.5" y="-4.5" width="9" height="9" class="tooth-part" data-part="center" data-tooth="36"/>
      <g transform="rotate(40.4)"><text x="0" y="20" class="tooth-label">36</text></g>
    </g>

    <g id="tooth-37" data-number="37" transform="translate(321.2, 158.5) rotate(-26.6)">
      <path d="M-7.5,-7.5 L7.5,-7.5 L4.5,-4.5 L-4.5,-4.5 Z" class="tooth-part" data-part="top" data-tooth="37"/>
      <path d="M7.5,-7.5 L7.5,7.5 L4.5,4.5 L4.5,-4.5 Z" class="tooth-part" data-part="right" data-tooth="37"/>
      <path d="M-7.5,7.5 L7.5,7.5 L4.5,4.5 L-4.5,4.5 Z" class="tooth-part" data-part="bottom" data-tooth="37"/>
      <path d="M-7.5,-7.5 L-7.5,7.5 L-4.5,4.5 L-4.5,-4.5 Z" class="tooth-part" data-part="left" data-tooth="37"/>
      <rect x="-4.5" y="-4.5" width="9" height="9" class="tooth-part" data-part="center" data-tooth="37"/>
      <g transform="rotate(26.6)"><text x="0" y="20" class="tooth-label">37</text></g>
    </g>

    <g id="tooth-38" data-number="38" transform="translate(333.5, 169.7) rotate(-12.8)">
      <path d="M-7.5,-7.5 L7.5,-7.5 L4.5,-4.5 L-4.5,-4.5 Z" class="tooth-part" data-part="top" data-tooth="38"/>
      <path d="M7.5,-7.5 L7.5,7.5 L4.5,4.5 L4.5,-4.5 Z" class="tooth-part" data-part="right" data-tooth="38"/>
      <path d="M-7.5,7.5 L7.5,7.5 L4.5,4.5 L-4.5,4.5 Z" class="tooth-part" data-part="bottom" data-tooth="38"/>
      <path d="M-7.5,-7.5 L-7.5,7.5 L-4.5,4.5 L-4.5,-4.5 Z" class="tooth-part" data-part="left" data-tooth="38"/>
      <rect x="-4.5" y="-4.5" width="9" height="9" class="tooth-part" data-part="center" data-tooth="38"/>
      <g transform="rotate(12.8)"><text x="0" y="20" class="tooth-label">38</text></g>
    </g>
  </g>
</svg>
