<?xml version="1.0" encoding="UTF-8"?>
<svg viewBox="0 0 360 220" xmlns="http://www.w3.org/2000/svg">
  <defs>
    <style>
      .tooth-part {
        fill: #ffffff;
        stroke: #4b5563;
        stroke-width: 0.4;
        cursor: pointer;
        transition: fill 0.15s;
      }
      .tooth-part:hover {
        fill: #f3f4f6;
      }
      .tooth-part.status-healthy {
        fill: #ffffff;
      }
      .tooth-part.status-cavity-completed {
        fill: #10b981;
      }
      .tooth-part.status-cavity-planned {
        fill: #ef4444;
      }
      .tooth-part.status-observation {
        fill: #fbbf24;
      }
      .tooth-part.status-crown {
        fill: #3b82f6;
      }
      .tooth-part.status-scaling-completed {
        fill: #10b981;
      }
      .tooth-part.status-cleaning {
        fill: #8b5cf6;
      }
      .tooth-label {
        font-size: 6px;
        font-family: ui-sans-serif, system-ui, sans-serif;
        text-anchor: middle;
        fill: #9ca3af;
        pointer-events: none;
      }
      .quadrant-label {
        font-weight: 600;
        font-size: 8px;
        fill: #6b7280;
      }
      .arch-guide {
        fill: none;
        stroke: #f3f4f6;
        stroke-width: 0.5;
      }
      .kids-title {
        font-size: 10px;
        font-weight: 600;
        fill: #f59e0b;
        text-anchor: middle;
      }
    </style>
  </defs>

  <!-- ガイド線（中央縦・横） -->
  <line x1="180" y1="10" x2="180" y2="210" stroke="#f0f0f0" stroke-width="1" />
  <line x1="10" y1="110" x2="350" y2="110" stroke="#f0f0f0" stroke-width="1" />

  <!-- 上顎・下顎のアーチガイド（楕円・乳歯用に小さめ） -->
  <ellipse cx="180" cy="105" rx="110" ry="70" class="arch-guide" />
  <ellipse cx="180" cy="115" rx="110" ry="70" class="arch-guide" />

  <!-- こどもモード表示 -->
  <text x="180" y="25" class="kids-title">こどもモード（乳歯20本）</text>

  <!-- 象限ラベル -->
  <text x="10" y="45" class="quadrant-label">右上 (5x)</text>
  <text x="350" y="45" class="quadrant-label" text-anchor="end">左上 (6x)</text>
  <text x="10" y="210" class="quadrant-label">右下 (8x)</text>
  <text x="350" y="210" class="quadrant-label" text-anchor="end">左下 (7x)</text>

  <!-- 歯のレイヤー：20本の乳歯 -->
  <g id="teeth-layer">

    <!-- 右上（第5象限）: 55, 54, 53, 52, 51 -->
    <g id="tooth-55" data-number="55" transform="translate(80.2, 75.8) rotate(140.0)">
      <path d="M-7.5,-7.5 L7.5,-7.5 L4.5,-4.5 L-4.5,-4.5 Z" class="tooth-part" data-part="top" data-tooth="55"/>
      <path d="M7.5,-7.5 L7.5,7.5 L4.5,4.5 L4.5,-4.5 Z" class="tooth-part" data-part="right" data-tooth="55"/>
      <path d="M-7.5,7.5 L7.5,7.5 L4.5,4.5 L-4.5,4.5 Z" class="tooth-part" data-part="bottom" data-tooth="55"/>
      <path d="M-7.5,-7.5 L-7.5,7.5 L-4.5,4.5 L-4.5,-4.5 Z" class="tooth-part" data-part="left" data-tooth="55"/>
      <rect x="-4.5" y="-4.5" width="9" height="9" class="tooth-part" data-part="center" data-tooth="55"/>
      <g transform="rotate(-140.0)"><text x="0" y="-15" class="tooth-label">55</text></g>
    </g>

    <g id="tooth-54" data-number="54" transform="translate(102.5, 91.5) rotate(120.0)">
      <path d="M-7.5,-7.5 L7.5,-7.5 L4.5,-4.5 L-4.5,-4.5 Z" class="tooth-part" data-part="top" data-tooth="54"/>
      <path d="M7.5,-7.5 L7.5,7.5 L4.5,4.5 L4.5,-4.5 Z" class="tooth-part" data-part="right" data-tooth="54"/>
      <path d="M-7.5,7.5 L7.5,7.5 L4.5,4.5 L-4.5,4.5 Z" class="tooth-part" data-part="bottom" data-tooth="54"/>
      <path d="M-7.5,-7.5 L-7.5,7.5 L-4.5,4.5 L-4.5,-4.5 Z" class="tooth-part" data-part="left" data-tooth="54"/>
      <rect x="-4.5" y="-4.5" width="9" height="9" class="tooth-part" data-part="center" data-tooth="54"/>
      <g transform="rotate(-120.0)"><text x="0" y="-15" class="tooth-label">54</text></g>
    </g>

    <g id="tooth-53" data-number="53" transform="translate(126.5, 102.8) rotate(100.0)">
      <path d="M-7.5,-7.5 L7.5,-7.5 L4.5,-4.5 L-4.5,-4.5 Z" class="tooth-part" data-part="top" data-tooth="53"/>
      <path d="M7.5,-7.5 L7.5,7.5 L4.5,4.5 L4.5,-4.5 Z" class="tooth-part" data-part="right" data-tooth="53"/>
      <path d="M-7.5,7.5 L7.5,7.5 L4.5,4.5 L-4.5,4.5 Z" class="tooth-part" data-part="bottom" data-tooth="53"/>
      <path d="M-7.5,-7.5 L-7.5,7.5 L-4.5,4.5 L-4.5,-4.5 Z" class="tooth-part" data-part="left" data-tooth="53"/>
      <rect x="-4.5" y="-4.5" width="9" height="9" class="tooth-part" data-part="center" data-tooth="53"/>
      <g transform="rotate(-100.0)"><text x="0" y="-15" class="tooth-label">53</text></g>
    </g>

    <g id="tooth-52" data-number="52" transform="translate(150.8, 108.5) rotate(80.0)">
      <path d="M-7.5,-7.5 L7.5,-7.5 L4.5,-4.5 L-4.5,-4.5 Z" class="tooth-part" data-part="top" data-tooth="52"/>
      <path d="M7.5,-7.5 L7.5,7.5 L4.5,4.5 L4.5,-4.5 Z" class="tooth-part" data-part="right" data-tooth="52"/>
      <path d="M-7.5,7.5 L7.5,7.5 L4.5,4.5 L-4.5,4.5 Z" class="tooth-part" data-part="bottom" data-tooth="52"/>
      <path d="M-7.5,-7.5 L-7.5,7.5 L-4.5,4.5 L-4.5,-4.5 Z" class="tooth-part" data-part="left" data-tooth="52"/>
      <rect x="-4.5" y="-4.5" width="9" height="9" class="tooth-part" data-part="center" data-tooth="52"/>
      <g transform="rotate(-80.0)"><text x="0" y="-15" class="tooth-label">52</text></g>
    </g>

    <g id="tooth-51" data-number="51" transform="translate(171.5, 110.0) rotate(65.0)">
      <path d="M-7.5,-7.5 L7.5,-7.5 L4.5,-4.5 L-4.5,-4.5 Z" class="tooth-part" data-part="top" data-tooth="51"/>
      <path d="M7.5,-7.5 L7.5,7.5 L4.5,4.5 L4.5,-4.5 Z" class="tooth-part" data-part="right" data-tooth="51"/>
      <path d="M-7.5,7.5 L7.5,7.5 L4.5,4.5 L-4.5,4.5 Z" class="tooth-part" data-part="bottom" data-tooth="51"/>
      <path d="M-7.5,-7.5 L-7.5,7.5 L-4.5,4.5 L-4.5,-4.5 Z" class="tooth-part" data-part="left" data-tooth="51"/>
      <rect x="-4.5" y="-4.5" width="9" height="9" class="tooth-part" data-part="center" data-tooth="51"/>
      <g transform="rotate(-65.0)"><text x="0" y="-15" class="tooth-label">51</text></g>
    </g>

    <!-- 左上（第6象限）: 61, 62, 63, 64, 65 -->
    <g id="tooth-61" data-number="61" transform="translate(188.5, 110.0) rotate(115.0)">
      <path d="M-7.5,-7.5 L7.5,-7.5 L4.5,-4.5 L-4.5,-4.5 Z" class="tooth-part" data-part="top" data-tooth="61"/>
      <path d="M7.5,-7.5 L7.5,7.5 L4.5,4.5 L4.5,-4.5 Z" class="tooth-part" data-part="right" data-tooth="61"/>
      <path d="M-7.5,7.5 L7.5,7.5 L4.5,4.5 L-4.5,4.5 Z" class="tooth-part" data-part="bottom" data-tooth="61"/>
      <path d="M-7.5,-7.5 L-7.5,7.5 L-4.5,4.5 L-4.5,-4.5 Z" class="tooth-part" data-part="left" data-tooth="61"/>
      <rect x="-4.5" y="-4.5" width="9" height="9" class="tooth-part" data-part="center" data-tooth="61"/>
      <g transform="rotate(-115.0)"><text x="0" y="-15" class="tooth-label">61</text></g>
    </g>

    <g id="tooth-62" data-number="62" transform="translate(209.2, 108.5) rotate(100.0)">
      <path d="M-7.5,-7.5 L7.5,-7.5 L4.5,-4.5 L-4.5,-4.5 Z" class="tooth-part" data-part="top" data-tooth="62"/>
      <path d="M7.5,-7.5 L7.5,7.5 L4.5,4.5 L4.5,-4.5 Z" class="tooth-part" data-part="right" data-tooth="62"/>
      <path d="M-7.5,7.5 L7.5,7.5 L4.5,4.5 L-4.5,4.5 Z" class="tooth-part" data-part="bottom" data-tooth="62"/>
      <path d="M-7.5,-7.5 L-7.5,7.5 L-4.5,4.5 L-4.5,-4.5 Z" class="tooth-part" data-part="left" data-tooth="62"/>
      <rect x="-4.5" y="-4.5" width="9" height="9" class="tooth-part" data-part="center" data-tooth="62"/>
      <g transform="rotate(-100.0)"><text x="0" y="-15" class="tooth-label">62</text></g>
    </g>

    <g id="tooth-63" data-number="63" transform="translate(233.5, 102.8) rotate(80.0)">
      <path d="M-7.5,-7.5 L7.5,-7.5 L4.5,-4.5 L-4.5,-4.5 Z" class="tooth-part" data-part="top" data-tooth="63"/>
      <path d="M7.5,-7.5 L7.5,7.5 L4.5,4.5 L4.5,-4.5 Z" class="tooth-part" data-part="right" data-tooth="63"/>
      <path d="M-7.5,7.5 L7.5,7.5 L4.5,4.5 L-4.5,4.5 Z" class="tooth-part" data-part="bottom" data-tooth="63"/>
      <path d="M-7.5,-7.5 L-7.5,7.5 L-4.5,4.5 L-4.5,-4.5 Z" class="tooth-part" data-part="left" data-tooth="63"/>
      <rect x="-4.5" y="-4.5" width="9" height="9" class="tooth-part" data-part="center" data-tooth="63"/>
      <g transform="rotate(-80.0)"><text x="0" y="-15" class="tooth-label">63</text></g>
    </g>

    <g id="tooth-64" data-number="64" transform="translate(257.5, 91.5) rotate(60.0)">
      <path d="M-7.5,-7.5 L7.5,-7.5 L4.5,-4.5 L-4.5,-4.5 Z" class="tooth-part" data-part="top" data-tooth="64"/>
      <path d="M7.5,-7.5 L7.5,7.5 L4.5,4.5 L4.5,-4.5 Z" class="tooth-part" data-part="right" data-tooth="64"/>
      <path d="M-7.5,7.5 L7.5,7.5 L4.5,4.5 L-4.5,4.5 Z" class="tooth-part" data-part="bottom" data-tooth="64"/>
      <path d="M-7.5,-7.5 L-7.5,7.5 L-4.5,4.5 L-4.5,-4.5 Z" class="tooth-part" data-part="left" data-tooth="64"/>
      <rect x="-4.5" y="-4.5" width="9" height="9" class="tooth-part" data-part="center" data-tooth="64"/>
      <g transform="rotate(-60.0)"><text x="0" y="-15" class="tooth-label">64</text></g>
    </g>

    <g id="tooth-65" data-number="65" transform="translate(279.8, 75.8) rotate(40.0)">
      <path d="M-7.5,-7.5 L7.5,-7.5 L4.5,-4.5 L-4.5,-4.5 Z" class="tooth-part" data-part="top" data-tooth="65"/>
      <path d="M7.5,-7.5 L7.5,7.5 L4.5,4.5 L4.5,-4.5 Z" class="tooth-part" data-part="right" data-tooth="65"/>
      <path d="M-7.5,7.5 L7.5,7.5 L4.5,4.5 L-4.5,4.5 Z" class="tooth-part" data-part="bottom" data-tooth="65"/>
      <path d="M-7.5,-7.5 L-7.5,7.5 L-4.5,4.5 L-4.5,-4.5 Z" class="tooth-part" data-part="left" data-tooth="65"/>
      <rect x="-4.5" y="-4.5" width="9" height="9" class="tooth-part" data-part="center" data-tooth="65"/>
      <g transform="rotate(-40.0)"><text x="0" y="-15" class="tooth-label">65</text></g>
    </g>

    <!-- 右下（第8象限）: 85, 84, 83, 82, 81 -->
    <g id="tooth-85" data-number="85" transform="translate(80.2, 144.2) rotate(-140.0)">
      <path d="M-7.5,-7.5 L7.5,-7.5 L4.5,-4.5 L-4.5,-4.5 Z" class="tooth-part" data-part="top" data-tooth="85"/>
      <path d="M7.5,-7.5 L7.5,7.5 L4.5,4.5 L4.5,-4.5 Z" class="tooth-part" data-part="right" data-tooth="85"/>
      <path d="M-7.5,7.5 L7.5,7.5 L4.5,4.5 L-4.5,4.5 Z" class="tooth-part" data-part="bottom" data-tooth="85"/>
      <path d="M-7.5,-7.5 L-7.5,7.5 L-4.5,4.5 L-4.5,-4.5 Z" class="tooth-part" data-part="left" data-tooth="85"/>
      <rect x="-4.5" y="-4.5" width="9" height="9" class="tooth-part" data-part="center" data-tooth="85"/>
      <g transform="rotate(140.0)"><text x="0" y="20" class="tooth-label">85</text></g>
    </g>

    <g id="tooth-84" data-number="84" transform="translate(102.5, 128.5) rotate(-120.0)">
      <path d="M-7.5,-7.5 L7.5,-7.5 L4.5,-4.5 L-4.5,-4.5 Z" class="tooth-part" data-part="top" data-tooth="84"/>
      <path d="M7.5,-7.5 L7.5,7.5 L4.5,4.5 L4.5,-4.5 Z" class="tooth-part" data-part="right" data-tooth="84"/>
      <path d="M-7.5,7.5 L7.5,7.5 L4.5,4.5 L-4.5,4.5 Z" class="tooth-part" data-part="bottom" data-tooth="84"/>
      <path d="M-7.5,-7.5 L-7.5,7.5 L-4.5,4.5 L-4.5,-4.5 Z" class="tooth-part" data-part="left" data-tooth="84"/>
      <rect x="-4.5" y="-4.5" width="9" height="9" class="tooth-part" data-part="center" data-tooth="84"/>
      <g transform="rotate(120.0)"><text x="0" y="20" class="tooth-label">84</text></g>
    </g>

    <g id="tooth-83" data-number="83" transform="translate(126.5, 117.2) rotate(-100.0)">
      <path d="M-7.5,-7.5 L7.5,-7.5 L4.5,-4.5 L-4.5,-4.5 Z" class="tooth-part" data-part="top" data-tooth="83"/>
      <path d="M7.5,-7.5 L7.5,7.5 L4.5,4.5 L4.5,-4.5 Z" class="tooth-part" data-part="right" data-tooth="83"/>
      <path d="M-7.5,7.5 L7.5,7.5 L4.5,4.5 L-4.5,4.5 Z" class="tooth-part" data-part="bottom" data-tooth="83"/>
      <path d="M-7.5,-7.5 L-7.5,7.5 L-4.5,4.5 L-4.5,-4.5 Z" class="tooth-part" data-part="left" data-tooth="83"/>
      <rect x="-4.5" y="-4.5" width="9" height="9" class="tooth-part" data-part="center" data-tooth="83"/>
      <g transform="rotate(100.0)"><text x="0" y="20" class="tooth-label">83</text></g>
    </g>

    <g id="tooth-82" data-number="82" transform="translate(150.8, 111.5) rotate(-80.0)">
      <path d="M-7.5,-7.5 L7.5,-7.5 L4.5,-4.5 L-4.5,-4.5 Z" class="tooth-part" data-part="top" data-tooth="82"/>
      <path d="M7.5,-7.5 L7.5,7.5 L4.5,4.5 L4.5,-4.5 Z" class="tooth-part" data-part="right" data-tooth="82"/>
      <path d="M-7.5,7.5 L7.5,7.5 L4.5,4.5 L-4.5,4.5 Z" class="tooth-part" data-part="bottom" data-tooth="82"/>
      <path d="M-7.5,-7.5 L-7.5,7.5 L-4.5,4.5 L-4.5,-4.5 Z" class="tooth-part" data-part="left" data-tooth="82"/>
      <rect x="-4.5" y="-4.5" width="9" height="9" class="tooth-part" data-part="center" data-tooth="82"/>
      <g transform="rotate(80.0)"><text x="0" y="20" class="tooth-label">82</text></g>
    </g>

    <g id="tooth-81" data-number="81" transform="translate(171.5, 110.0) rotate(-65.0)">
      <path d="M-7.5,-7.5 L7.5,-7.5 L4.5,-4.5 L-4.5,-4.5 Z" class="tooth-part" data-part="top" data-tooth="81"/>
      <path d="M7.5,-7.5 L7.5,7.5 L4.5,4.5 L4.5,-4.5 Z" class="tooth-part" data-part="right" data-tooth="81"/>
      <path d="M-7.5,7.5 L7.5,7.5 L4.5,4.5 L-4.5,4.5 Z" class="tooth-part" data-part="bottom" data-tooth="81"/>
      <path d="M-7.5,-7.5 L-7.5,7.5 L-4.5,4.5 L-4.5,-4.5 Z" class="tooth-part" data-part="left" data-tooth="81"/>
      <rect x="-4.5" y="-4.5" width="9" height="9" class="tooth-part" data-part="center" data-tooth="81"/>
      <g transform="rotate(65.0)"><text x="0" y="20" class="tooth-label">81</text></g>
    </g>

    <!-- 左下（第7象限）: 71, 72, 73, 74, 75 -->
    <g id="tooth-71" data-number="71" transform="translate(188.5, 110.0) rotate(-115.0)">
      <path d="M-7.5,-7.5 L7.5,-7.5 L4.5,-4.5 L-4.5,-4.5 Z" class="tooth-part" data-part="top" data-tooth="71"/>
      <path d="M7.5,-7.5 L7.5,7.5 L4.5,4.5 L4.5,-4.5 Z" class="tooth-part" data-part="right" data-tooth="71"/>
      <path d="M-7.5,7.5 L7.5,7.5 L4.5,4.5 L-4.5,4.5 Z" class="tooth-part" data-part="bottom" data-tooth="71"/>
      <path d="M-7.5,-7.5 L-7.5,7.5 L-4.5,4.5 L-4.5,-4.5 Z" class="tooth-part" data-part="left" data-tooth="71"/>
      <rect x="-4.5" y="-4.5" width="9" height="9" class="tooth-part" data-part="center" data-tooth="71"/>
      <g transform="rotate(115.0)"><text x="0" y="20" class="tooth-label">71</text></g>
    </g>

    <g id="tooth-72" data-number="72" transform="translate(209.2, 111.5) rotate(-100.0)">
      <path d="M-7.5,-7.5 L7.5,-7.5 L4.5,-4.5 L-4.5,-4.5 Z" class="tooth-part" data-part="top" data-tooth="72"/>
      <path d="M7.5,-7.5 L7.5,7.5 L4.5,4.5 L4.5,-4.5 Z" class="tooth-part" data-part="right" data-tooth="72"/>
      <path d="M-7.5,7.5 L7.5,7.5 L4.5,4.5 L-4.5,4.5 Z" class="tooth-part" data-part="bottom" data-tooth="72"/>
      <path d="M-7.5,-7.5 L-7.5,7.5 L-4.5,4.5 L-4.5,-4.5 Z" class="tooth-part" data-part="left" data-tooth="72"/>
      <rect x="-4.5" y="-4.5" width="9" height="9" class="tooth-part" data-part="center" data-tooth="72"/>
      <g transform="rotate(100.0)"><text x="0" y="20" class="tooth-label">72</text></g>
    </g>

    <g id="tooth-73" data-number="73" transform="translate(233.5, 117.2) rotate(-80.0)">
      <path d="M-7.5,-7.5 L7.5,-7.5 L4.5,-4.5 L-4.5,-4.5 Z" class="tooth-part" data-part="top" data-tooth="73"/>
      <path d="M7.5,-7.5 L7.5,7.5 L4.5,4.5 L4.5,-4.5 Z" class="tooth-part" data-part="right" data-tooth="73"/>
      <path d="M-7.5,7.5 L7.5,7.5 L4.5,4.5 L-4.5,4.5 Z" class="tooth-part" data-part="bottom" data-tooth="73"/>
      <path d="M-7.5,-7.5 L-7.5,7.5 L-4.5,4.5 L-4.5,-4.5 Z" class="tooth-part" data-part="left" data-tooth="73"/>
      <rect x="-4.5" y="-4.5" width="9" height="9" class="tooth-part" data-part="center" data-tooth="73"/>
      <g transform="rotate(80.0)"><text x="0" y="20" class="tooth-label">73</text></g>
    </g>

    <g id="tooth-74" data-number="74" transform="translate(257.5, 128.5) rotate(-60.0)">
      <path d="M-7.5,-7.5 L7.5,-7.5 L4.5,-4.5 L-4.5,-4.5 Z" class="tooth-part" data-part="top" data-tooth="74"/>
      <path d="M7.5,-7.5 L7.5,7.5 L4.5,4.5 L4.5,-4.5 Z" class="tooth-part" data-part="right" data-tooth="74"/>
      <path d="M-7.5,7.5 L7.5,7.5 L4.5,4.5 L-4.5,4.5 Z" class="tooth-part" data-part="bottom" data-tooth="74"/>
      <path d="M-7.5,-7.5 L-7.5,7.5 L-4.5,4.5 L-4.5,-4.5 Z" class="tooth-part" data-part="left" data-tooth="74"/>
      <rect x="-4.5" y="-4.5" width="9" height="9" class="tooth-part" data-part="center" data-tooth="74"/>
      <g transform="rotate(60.0)"><text x="0" y="20" class="tooth-label">74</text></g>
    </g>

    <g id="tooth-75" data-number="75" transform="translate(279.8, 144.2) rotate(-40.0)">
      <path d="M-7.5,-7.5 L7.5,-7.5 L4.5,-4.5 L-4.5,-4.5 Z" class="tooth-part" data-part="top" data-tooth="75"/>
      <path d="M7.5,-7.5 L7.5,7.5 L4.5,4.5 L4.5,-4.5 Z" class="tooth-part" data-part="right" data-tooth="75"/>
      <path d="M-7.5,7.5 L7.5,7.5 L4.5,4.5 L-4.5,4.5 Z" class="tooth-part" data-part="bottom" data-tooth="75"/>
      <path d="M-7.5,-7.5 L-7.5,7.5 L-4.5,4.5 L-4.5,-4.5 Z" class="tooth-part" data-part="left" data-tooth="75"/>
      <rect x="-4.5" y="-4.5" width="9" height="9" class="tooth-part" data-part="center" data-tooth="75"/>
      <g transform="rotate(40.0)"><text x="0" y="20" class="tooth-label">75</text></g>
    </g>
  </g>
</svg>
